<?xml version="1.0" standalone="no"?>
<!DOCTYPE svg PUBLIC "-//W3C//DTD SVG 20010904//EN"
 "http://www.w3.org/TR/2001/REC-SVG-20010904/DTD/svg10.dtd">
<svg version="1.0" xmlns="http://www.w3.org/2000/svg"
 width="900.000000pt" height="4 00.000000pt" viewBox="0 0 900 900"
 preserveAspectRatio="xMidYMid meet">
<metadata>
Created by potrace 1.10, written by Peter Selinger 2001-2011
</metadata>
<g transform="translate(0.000000,900.000000) scale(0.100000,-0.100000)"
fill="#000000" stroke="none">
<path d="M447 5473 c-12 -11 -8 -1971 3 -1975 5 -1 381 -2 835 0 l825 2 0 990
0 990 -828 0 c-456 0 -832 -3 -835 -7z m1497 -121 c3 -5 6 -62 7 -127 1 -89
-2 -120 -12 -126 -8 -5 -305 -9 -661 -9 -630 0 -648 1 -658 19 -11 21 -14 209
-4 235 6 14 73 16 664 16 363 0 661 -4 664 -8z m-150 -371 c112 -54 176 -163
176 -301 0 -183 -100 -293 -289 -319 -53 -7 -265 -11 -567 -11 -468 0 -484 1
-494 19 -11 21 -14 209 -4 235 5 14 59 16 506 16 537 0 573 3 584 47 9 33 -1
52 -33 65 -19 7 -186 11 -536 12 -440 1 -509 3 -517 16 -11 17 -14 209 -4 235
6 14 57 16 568 13 l561 -3 49 -24z m-650 -701 c8 -8 9 -247 1 -259 -4 -7 -52
-11 -126 -11 -66 0 -129 -5 -140 -10 -13 -8 -19 -21 -19 -45 0 -65 10 -66 434
-63 351 3 375 4 395 22 25 22 27 44 7 72 -13 17 -31 20 -168 24 l-153 5 -3
132 -3 132 26 7 c15 4 99 4 188 2 136 -5 169 -9 208 -26 89 -41 134 -94 163
-192 45 -152 -8 -322 -123 -394 -86 -54 -109 -56 -531 -56 -352 0 -397 2 -459
19 -101 28 -137 50 -184 112 -77 102 -76 299 1 411 48 69 111 107 202 119 62
8 275 7 284 -1z"/>
<path d="M2585 5415 c-5 -1 -37 -11 -70 -21 -50 -14 -70 -28 -120 -79 -37 -37
-66 -79 -76 -106 -9 -24 -22 -60 -30 -79 -11 -28 -14 -145 -17 -579 -3 -520
-2 -547 17 -608 35 -111 105 -191 210 -241 53 -25 64 -26 196 -26 136 1 142 2
205 32 71 34 130 86 155 135 47 92 50 113 50 347 l0 225 -159 3 c-121 2 -161
-1 -168 -10 -4 -7 -8 -90 -8 -184 0 -162 -1 -173 -23 -205 -19 -29 -29 -34
-62 -34 -33 0 -43 5 -62 34 l-23 34 0 491 c0 470 1 492 20 523 21 35 55 49 95
39 42 -11 50 -40 55 -211 l5 -160 165 0 165 0 3 174 c3 232 -19 312 -111 400
-82 78 -175 111 -311 110 -50 0 -95 -2 -101 -4z"/>
<path d="M3483 5400 c-110 -32 -185 -103 -235 -221 l-23 -54 0 -560 c0 -557 0
-560 23 -623 44 -123 121 -207 227 -248 40 -15 75 -19 175 -19 120 1 128 2
192 33 108 53 168 132 206 271 15 59 17 123 17 586 0 452 -2 527 -16 575 -57
191 -189 281 -408 279 -62 0 -118 -7 -158 -19z m208 -309 l24 -19 0 -524 c0
-506 -1 -524 -20 -545 -13 -16 -31 -23 -56 -23 -32 0 -41 5 -58 34 -21 33 -21
44 -21 534 l0 500 26 31 c30 36 70 41 105 12z"/>
<path d="M7355 5415 c-5 -1 -37 -11 -70 -21 -50 -14 -70 -28 -120 -79 -37 -37
-66 -79 -76 -106 -9 -24 -22 -60 -30 -79 -11 -28 -14 -145 -17 -579 -3 -490
-1 -550 14 -600 36 -117 105 -198 211 -248 55 -26 66 -27 198 -27 136 1 142 2
206 32 102 49 145 98 187 212 14 37 17 84 17 270 l0 225 -161 3 c-161 2 -162
2 -168 -20 -3 -13 -6 -95 -6 -184 0 -151 -1 -163 -23 -195 -19 -29 -29 -34
-62 -34 -33 0 -43 5 -62 34 l-23 34 0 491 c0 470 1 492 20 523 21 35 55 49 95
39 42 -11 50 -40 55 -211 l5 -160 165 0 165 0 3 165 c1 90 -2 187 -8 215 -41
195 -192 306 -414 304 -50 0 -95 -2 -101 -4z"/>
<path d="M4220 5391 c-7 -14 -9 -293 -8 -863 l3 -843 154 -3 c85 -1 158 1 163
6 4 4 9 174 10 377 2 204 7 376 12 384 12 19 26 -5 26 -47 0 -19 7 -61 15 -95
8 -34 21 -96 29 -137 9 -41 22 -111 31 -155 8 -44 22 -109 30 -145 7 -36 17
-85 21 -110 12 -83 5 -80 179 -80 85 0 156 4 160 9 3 6 5 391 5 857 0 663 -3
850 -13 856 -6 4 -77 7 -157 5 l-145 -2 -5 -372 c-5 -340 -9 -417 -23 -366
-10 36 -37 159 -48 218 -14 78 -34 180 -54 285 -9 47 -21 112 -26 144 -15 95
-17 96 -195 96 -142 0 -154 -1 -164 -19z"/>
<path d="M5215 5388 c-3 -13 -4 -401 -3 -863 l3 -840 160 0 160 0 3 390 c2
356 10 463 27 379 3 -16 12 -49 20 -74 8 -25 15 -54 15 -64 0 -11 6 -47 14
-80 8 -34 22 -101 31 -151 9 -49 23 -121 31 -160 23 -113 46 -219 50 -232 4
-16 304 -19 319 -4 6 6 8 331 5 863 l-5 853 -144 3 c-97 2 -148 -1 -157 -9
-11 -9 -14 -72 -14 -340 0 -293 -7 -396 -25 -377 -5 5 -30 131 -45 226 -5 29
-13 74 -19 100 -5 26 -17 85 -26 132 -14 73 -29 148 -51 248 -4 22 -6 22 -174
22 -168 0 -170 0 -175 -22z"/>
<path d="M6231 5396 c-8 -10 -10 -243 -9 -862 l3 -849 345 0 345 0 0 160 0
160 -170 3 c-120 2 -171 6 -177 15 -14 22 -10 375 5 384 6 4 80 10 162 13
l150 5 0 150 0 150 -149 3 c-90 1 -155 7 -163 14 -10 8 -13 48 -13 158 0 82 3
155 6 164 5 14 28 16 154 16 82 0 155 3 164 6 14 5 16 28 16 153 0 101 -4 151
-12 159 -19 19 -641 17 -657 -2z"/>
<path d="M7955 5400 c-8 -13 -9 -300 0 -308 3 -4 48 -9 98 -12 l92 -5 5 -695
5 -695 165 0 165 0 3 684 c1 485 5 688 13 698 8 9 37 13 95 13 48 0 86 4 89
11 9 13 8 296 0 309 -4 6 -144 10 -365 10 -221 0 -361 -4 -365 -10z"/>
</g>
</svg>
